<svg width="25" height="26" viewBox="0 0 25 26" fill="none" xmlns="http://www.w3.org/2000/svg">
<path d="M23.1015 9.64121H22.212L18.2292 2.1294C18.0397 1.77198 17.5964 1.63599 17.239 1.8253C16.8815 2.0148 16.7454 2.45816 16.9349 2.81558L20.5539 9.64112H4.55239L8.17134 2.81563C8.36084 2.45821 8.22471 2.01485 7.86728 1.82535C7.50991 1.63584 7.0665 1.77198 6.877 2.12945L2.89424 9.64121H1.89849C0.85166 9.64121 0 10.4928 0 11.5397C0 12.5865 0.85166 13.4382 1.89849 13.4382H1.95117C1.95278 13.4486 1.954 13.4591 1.95586 13.4696L3.4834 22.0348C3.77065 23.6453 5.1665 24.8143 6.80244 24.8143H18.3037C19.9396 24.8143 21.3355 23.6453 21.6228 22.0348L23.1503 13.4696C23.1522 13.4587 23.1536 13.4478 23.1552 13.4369C24.1772 13.4082 24.9999 12.5685 24.9999 11.5397C25 10.4928 24.1483 9.64121 23.1015 9.64121ZM9.3686 22.3229C9.32744 22.3298 9.28647 22.3331 9.24609 22.3331C8.89502 22.3331 8.58491 22.0799 8.52471 21.7222L7.44443 15.3085C7.37725 14.9096 7.64614 14.5317 8.04507 14.4646C8.4436 14.3975 8.82187 14.6663 8.88906 15.0652L9.96933 21.4789C10.0364 21.8778 9.76753 22.2557 9.3686 22.3229ZM13.2008 21.6005C13.2008 22.0051 12.8729 22.333 12.4684 22.333C12.0638 22.333 11.7359 22.005 11.7359 21.6005V15.1869C11.7359 14.7823 12.0639 14.4544 12.4684 14.4544C12.8729 14.4544 13.2008 14.7824 13.2008 15.1869V21.6005ZM17.4413 15.3085L16.361 21.7222C16.3008 22.0799 15.9907 22.3331 15.6396 22.3331C15.5992 22.3331 15.5583 22.3298 15.5171 22.3229C15.1182 22.2557 14.8493 21.8778 14.9165 21.4789L15.9968 15.0652C16.064 14.6663 16.4423 14.3978 16.8408 14.4646C17.2395 14.5317 17.5085 14.9096 17.4413 15.3085Z" fill="#201E1F"/>
</svg>
