<svg width="25" height="25" viewBox="0 0 25 25" fill="none" xmlns="http://www.w3.org/2000/svg">
<path d="M21.8878 22.0308C23.6049 22.0308 25 20.6357 25 18.9186V6.08134C25 4.36425 23.6049 2.96912 21.8878 2.96912H3.11222C1.39514 2.96912 0 4.36425 0 6.08134V18.9135C0 20.6306 1.39514 22.0257 3.11222 22.0257H21.8878V22.0308ZM3.18377 7.30272C2.86181 7.02676 2.82093 6.54639 3.09689 6.22443C3.37285 5.90248 3.85323 5.86159 4.17518 6.13755L12.5 13.2001L20.8299 6.13244C21.1519 5.85648 21.6374 5.89737 21.9082 6.21932C22.1842 6.54127 22.1433 7.02676 21.8213 7.29761L15.878 12.3467L21.852 17.9681C22.1586 18.2594 22.174 18.7449 21.8827 19.0515C21.7294 19.2099 21.53 19.2917 21.3256 19.2917C21.1365 19.2917 20.9475 19.2201 20.7993 19.0822L14.7026 13.3483L13.0008 14.7945C12.8577 14.9172 12.6789 14.9785 12.5051 14.9785C12.3262 14.9785 12.1525 14.9172 12.0094 14.7945L10.3025 13.3483L4.20585 19.0873C4.05765 19.2252 3.86856 19.2968 3.67948 19.2968C3.47506 19.2968 3.27065 19.215 3.12244 19.0566C2.83115 18.75 2.84648 18.2645 3.15311 17.9732L9.12715 12.3467L3.18377 7.30272Z" fill="#201E1F"/>
</svg>
