<svg width="65" height="66" viewBox="0 0 65 66" fill="none" xmlns="http://www.w3.org/2000/svg">
<g clip-path="url(#clip0)" filter="url(#filter0_d)">
<rect x="24" y="17.7771" width="19" height="20" fill="white"/>
<path d="M32.5 23.4437C30.9529 23.4437 29.4692 24.0583 28.3752 25.1523C27.2812 26.2462 26.6667 27.73 26.6667 29.2771C26.6667 30.8242 27.2812 32.3079 28.3752 33.4018C29.4692 34.4958 30.9529 35.1104 32.5 35.1104C34.0471 35.1104 35.5308 34.4958 36.6248 33.4018C37.7188 32.3079 38.3333 30.8242 38.3333 29.2771C38.3333 27.73 37.7188 26.2462 36.6248 25.1523C35.5308 24.0583 34.0471 23.4437 32.5 23.4437Z" fill="#FF0000"/>
<path fill-rule="evenodd" clip-rule="evenodd" d="M25.5 11.7771C22.7152 11.7771 20.0445 12.8833 18.0754 14.8525C16.1062 16.8216 15 19.4923 15 22.2771L15 36.2771C15 39.0619 16.1062 41.7326 18.0754 43.7017C20.0445 45.6708 22.7152 46.7771 25.5 46.7771H39.5C42.2848 46.7771 44.9555 45.6708 46.9246 43.7017C48.8937 41.7326 50 39.0619 50 36.2771V22.2771C50 19.4923 48.8937 16.8216 46.9246 14.8525C44.9555 12.8833 42.2848 11.7771 39.5 11.7771H25.5ZM24.3333 29.2771C24.3333 27.1112 25.1937 25.0339 26.7253 23.5024C28.2568 21.9708 30.3341 21.1104 32.5 21.1104C34.6659 21.1104 36.7432 21.9708 38.2747 23.5024C39.8063 25.0339 40.6667 27.1112 40.6667 29.2771C40.6667 31.443 39.8063 33.5203 38.2747 35.0518C36.7432 36.5834 34.6659 37.4438 32.5 37.4438C30.3341 37.4438 28.2568 36.5834 26.7253 35.0518C25.1937 33.5203 24.3333 31.443 24.3333 29.2771ZM40.6667 21.1104H43V18.7771H40.6667V21.1104Z" fill="#FF0000"/>
</g>
<defs>
<filter id="filter0_d" x="0" y="0.7771" width="65" height="65" filterUnits="userSpaceOnUse" color-interpolation-filters="sRGB">
<feFlood flood-opacity="0" result="BackgroundImageFix"/>
<feColorMatrix in="SourceAlpha" type="matrix" values="0 0 0 0 0 0 0 0 0 0 0 0 0 0 0 0 0 0 127 0" result="hardAlpha"/>
<feOffset dy="4"/>
<feGaussianBlur stdDeviation="7.5"/>
<feColorMatrix type="matrix" values="0 0 0 0 0.483333 0 0 0 0 0.469236 0 0 0 0 0.469236 0 0 0 0.25 0"/>
<feBlend mode="normal" in2="BackgroundImageFix" result="effect1_dropShadow"/>
<feBlend mode="normal" in="SourceGraphic" in2="effect1_dropShadow" result="shape"/>
</filter>
<clipPath id="clip0">
<rect width="35" height="35" fill="white" transform="translate(15 11.7771)"/>
</clipPath>
</defs>
</svg>
