<svg width="136" height="121" viewBox="0 0 136 121" fill="none" xmlns="http://www.w3.org/2000/svg">
<g filter="url(#filter0_d)">
<rect x="15.5143" y="35.8571" width="77.0857" height="82.8571" fill="#0D151E"/>
<path d="M49.9999 59.3334C43.7231 59.3334 37.7034 61.8795 33.265 66.4117C28.8267 70.9438 26.3332 77.0907 26.3332 83.5001C26.3332 89.9095 28.8267 96.0564 33.265 100.588C37.7034 105.121 43.7231 107.667 49.9999 107.667C56.2767 107.667 62.2964 105.121 66.7348 100.588C71.1731 96.0564 73.6666 89.9095 73.6666 83.5001C73.6666 77.0907 71.1731 70.9438 66.7348 66.4117C62.2964 61.8795 56.2767 59.3334 49.9999 59.3334Z" fill="white"/>
<path fill-rule="evenodd" clip-rule="evenodd" d="M21.6 11C10.3018 11 -0.533701 15.583 -8.52275 23.7409C-16.5118 31.8987 -21 42.9631 -21 54.5L-21 112.5C-21 124.037 -16.5118 135.101 -8.52275 143.259C-0.533701 151.417 10.3018 156 21.6 156H78.4C89.6982 156 100.534 151.417 108.523 143.259C116.512 135.101 121 124.037 121 112.5V54.5C121 42.9631 116.512 31.8987 108.523 23.7409C100.534 15.583 89.6982 11 78.4 11L21.6 11ZM16.8667 83.5C16.8667 74.5268 20.3575 65.9212 26.5712 59.5762C32.7849 53.2312 41.2125 49.6667 50 49.6667C58.7875 49.6667 67.2151 53.2312 73.4288 59.5762C79.6425 65.9212 83.1333 74.5268 83.1333 83.5C83.1333 92.4732 79.6425 101.079 73.4288 107.424C67.2151 113.769 58.7875 117.333 50 117.333C41.2125 117.333 32.7849 113.769 26.5712 107.424C20.3575 101.079 16.8667 92.4732 16.8667 83.5ZM83.1333 49.6667H92.6V40H83.1333V49.6667Z" fill="white"/>
</g>
<defs>
<filter id="filter0_d" x="-36" y="0" width="172" height="175" filterUnits="userSpaceOnUse" color-interpolation-filters="sRGB">
<feFlood flood-opacity="0" result="BackgroundImageFix"/>
<feColorMatrix in="SourceAlpha" type="matrix" values="0 0 0 0 0 0 0 0 0 0 0 0 0 0 0 0 0 0 127 0" result="hardAlpha"/>
<feOffset dy="4"/>
<feGaussianBlur stdDeviation="7.5"/>
<feColorMatrix type="matrix" values="0 0 0 0 0.483333 0 0 0 0 0.469236 0 0 0 0 0.469236 0 0 0 0.25 0"/>
<feBlend mode="normal" in2="BackgroundImageFix" result="effect1_dropShadow"/>
<feBlend mode="normal" in="SourceGraphic" in2="effect1_dropShadow" result="shape"/>
</filter>
</defs>
</svg>
