<svg width="25" height="25" viewBox="0 0 25 25" fill="none" xmlns="http://www.w3.org/2000/svg">
<g clip-path="url(#clip0)">
<path d="M24.6525 20.7885L21.1278 24.285C20.6075 24.8186 19.9178 24.9993 19.2462 25.0001C16.2759 24.9112 13.4684 23.4521 11.1632 21.954C7.37942 19.2013 3.90762 15.788 1.72866 11.6633C0.892948 9.93365 -0.0876379 7.72675 0.00604983 5.79614C0.014404 5.06989 0.210113 4.35712 0.721593 3.889L4.24631 0.366057C4.97823 -0.256506 5.68604 -0.0412559 6.15442 0.683911L8.99007 6.06104C9.28853 6.69806 9.11732 7.3806 8.67203 7.83579L7.37344 9.13371C7.29328 9.24352 7.24223 9.36852 7.24094 9.50456C7.7389 11.4321 9.24747 13.2087 10.5801 14.4314C11.9128 15.654 13.3452 17.3105 15.2047 17.7026C15.4345 17.7667 15.716 17.7893 15.8805 17.6364L17.3911 16.1001C17.9118 15.7054 18.6637 15.5125 19.2197 15.8352H19.2462L24.361 18.8549C25.1118 19.3255 25.1901 20.2351 24.6525 20.7885Z" fill="#201E1F"/>
</g>
<defs>
<clipPath id="clip0">
<rect width="25" height="25" fill="white"/>
</clipPath>
</defs>
</svg>
