<svg width="25" height="25" viewBox="0 0 25 25" fill="none" xmlns="http://www.w3.org/2000/svg">
<path d="M17.0136 4.18311H15.1099C14.9812 5.30298 14.4836 6.33887 13.6759 7.14653L6.86459 13.9577L2.47108 9.56421C2.18402 10.3969 2.03461 11.2759 2.03461 12.1695C2.03461 16.5732 5.61732 20.1559 10.0211 20.1559H11.2146L16.4195 25V20.156H17.0135C21.4173 20.156 24.9999 16.5733 24.9999 12.1696C24.9999 7.76587 21.4173 4.18311 17.0136 4.18311ZM11.3615 13.192H9.812V11.7259H11.3615V13.192ZM14.5384 13.192H12.989V11.7259H14.5384V13.192ZM17.7154 13.192H16.166V11.7259H17.7154V13.192Z" fill="#201E1F"/>
<path d="M12.6746 6.14526C14.0785 4.74131 14.0785 2.45693 12.6746 1.05298C11.2706 -0.350928 8.98628 -0.350928 7.58232 1.05298L6.86465 1.7707L6.14692 1.05298C4.74297 -0.351025 2.45859 -0.350977 1.05464 1.05303C0.374561 1.73306 0 2.6373 0 3.59912C0 4.56094 0.374512 5.46514 1.05464 6.14526L6.8646 11.9552L12.6746 6.14526Z" fill="#201E1F"/>
</svg>
